# xmcd
#
# Track frame offsets: 
#        182
#        2685
#        22305
#        36450
#        52130
#        68330
#        84897
#        99847
#        116172
#
# Disc length: 1728 seconds
#
# Revision: 0
# Processed by: cddbd v1.5.1PL0 Copyright (c) Steve Scherf et al.
# Submitted via: ExactAudioCopy v0.95a5
#
DISCID=6d06be09
DTITLE=Various Artist - All-Star Collection
DYEAR=1996
DGENRE=Country
TTITLE0=A Special Greeting From Randy Owen...
TTITLE1=Alan Jackson - Gone Country
TTITLE2=Pam Tillis - Shake The Sugar Tree
TTITLE3=Alabama - Down Home
TTITLE4=Patty Loveless - Blame It On Your Heart
TTITLE5=Alan Jackson - Mercury Blues
TTITLE6=Pam Tillis - Maybe It Was Memphis
TTITLE7=Alabama - Jukebox In My Mind
TTITLE8=Patty Loveless - Here I Am
EXTD=
EXTT0=
EXTT1=Alan Jackson - Gone Country
EXTT2=
EXTT3=
EXTT4=
EXTT5=
EXTT6=
EXTT7=
EXTT8=
PLAYORDER=
